<svg width="29" height="29" viewBox="0 0 29 29" fill="none" xmlns="http://www.w3.org/2000/svg">
<path fill-rule="evenodd" clip-rule="evenodd" d="M9.96875 17.2188C9.96875 16.7182 10.3745 16.3125 10.875 16.3125H18.125C18.6255 16.3125 19.0312 16.7182 19.0312 17.2188C19.0312 17.7193 18.6255 18.125 18.125 18.125H10.875C10.3745 18.125 9.96875 17.7193 9.96875 17.2188Z" fill="#000022"/>
<path fill-rule="evenodd" clip-rule="evenodd" d="M9.96875 13.5938C9.96875 13.0932 10.3745 12.6875 10.875 12.6875H18.125C18.6255 12.6875 19.0312 13.0932 19.0312 13.5938C19.0312 14.0943 18.6255 14.5 18.125 14.5H10.875C10.3745 14.5 9.96875 14.0943 9.96875 13.5938Z" fill="#000022"/>
<path fill-rule="evenodd" clip-rule="evenodd" d="M5.06212 4.15587C5.40203 3.81596 5.86304 3.625 6.34375 3.625H10.875C11.3755 3.625 11.7812 4.03074 11.7812 4.53125C11.7812 5.03176 11.3755 5.4375 10.875 5.4375H6.34375L6.34375 24.4688H22.6562V5.4375H18.125C17.6245 5.4375 17.2188 5.03176 17.2188 4.53125C17.2188 4.03074 17.6245 3.625 18.125 3.625H22.6562C23.137 3.625 23.598 3.81596 23.9379 4.15587C24.2778 4.49578 24.4688 4.9568 24.4688 5.4375V24.4688C24.4688 24.9495 24.2778 25.4105 23.9379 25.7504C23.598 26.0903 23.137 26.2812 22.6562 26.2812H6.34375C5.86305 26.2812 5.40203 26.0903 5.06212 25.7504C4.72221 25.4105 4.53125 24.9495 4.53125 24.4688V5.4375C4.53125 4.95679 4.72221 4.49578 5.06212 4.15587Z" fill="#000022"/>
<path fill-rule="evenodd" clip-rule="evenodd" d="M14.5 3.625C13.5386 3.625 12.6166 4.00692 11.9367 4.68674C11.2569 5.36656 10.875 6.28859 10.875 7.25H18.125C18.125 6.28859 17.7431 5.36656 17.0633 4.68674C16.3834 4.00692 15.4614 3.625 14.5 3.625ZM10.6551 3.40511C11.6748 2.38538 13.0579 1.8125 14.5 1.8125C15.9421 1.8125 17.3252 2.38538 18.3449 3.40511C19.3646 4.42484 19.9375 5.80789 19.9375 7.25V8.15625C19.9375 8.65676 19.5318 9.0625 19.0312 9.0625H9.96875C9.46824 9.0625 9.0625 8.65676 9.0625 8.15625V7.25C9.0625 5.80789 9.63538 4.42484 10.6551 3.40511Z" fill="#000022"/>
</svg>
