<svg width="23" height="23" viewBox="0 0 23 23" fill="none" xmlns="http://www.w3.org/2000/svg">
<path fill-rule="evenodd" clip-rule="evenodd" d="M10.2779 0.510244C10.6118 0.205331 11.0477 0.0362549 11.5 0.0362549C11.9523 0.0362549 12.3882 0.205332 12.7221 0.510243C12.7225 0.510649 12.723 0.511054 12.7234 0.51146L21.7837 8.74497L21.7965 8.75679C21.9756 8.92593 22.119 9.12919 22.2183 9.35461C22.3177 9.58003 22.3709 9.82304 22.3749 10.0694L22.375 10.084V20.5625C22.375 21.0432 22.184 21.5042 21.8441 21.8442C21.5042 22.1841 21.0432 22.375 20.5625 22.375H15.125C14.6443 22.375 14.1833 22.1841 13.8434 21.8442C13.5035 21.5042 13.3125 21.0432 13.3125 20.5625V15.125H9.6875V20.5625C9.6875 21.0432 9.49654 21.5042 9.15663 21.8442C8.81672 22.1841 8.3557 22.375 7.875 22.375H2.4375C1.9568 22.375 1.49578 22.1841 1.15587 21.8442C0.815959 21.5042 0.625 21.0432 0.625 20.5625V10.084L0.625119 10.0694C0.629103 9.82305 0.682331 9.58003 0.781669 9.35461C0.881006 9.12919 1.02444 8.92593 1.20354 8.75679L1.2163 8.74497L10.2766 0.51146C10.277 0.511054 10.2774 0.510649 10.2779 0.510244ZM2.44609 10.0765L11.4978 1.85079L11.5 1.84875L11.5022 1.85079L20.5539 10.0765C20.5563 10.0792 20.5583 10.0822 20.5597 10.0855C20.5613 10.089 20.5622 10.0926 20.5625 10.0963V20.5625H15.125V15.125C15.125 14.6443 14.934 14.1833 14.5941 13.8434C14.2542 13.5035 13.7932 13.3125 13.3125 13.3125H9.6875C9.2068 13.3125 8.74578 13.5035 8.40587 13.8434C8.06596 14.1833 7.875 14.6443 7.875 15.125V20.5625H2.4375V10.0963C2.43782 10.0926 2.43875 10.089 2.44026 10.0855C2.44172 10.0822 2.44368 10.0792 2.44609 10.0765Z" fill="#000022"/>
</svg>
