<svg width="29" height="29" viewBox="0 0 29 29" fill="none" xmlns="http://www.w3.org/2000/svg">
<path fill-rule="evenodd" clip-rule="evenodd" d="M10.6193 2.41138C10.8682 2.33103 11.1397 2.36214 11.3639 2.4967L14.013 4.08614C14.3377 4.07163 14.6629 4.07164 14.9876 4.08617L17.6257 2.50749C17.8481 2.37439 18.1169 2.3429 18.364 2.42099C20.0952 2.96793 21.6869 3.88459 23.0288 5.1075C23.2212 5.2828 23.3289 5.53235 23.3245 5.79258L23.2727 8.87183C23.4515 9.14653 23.6157 9.43056 23.7644 9.72271L26.4498 11.2157C26.6759 11.3414 26.8375 11.5578 26.8939 11.8103C27.289 13.5799 27.2931 15.4143 26.9061 17.1856C26.8504 17.4403 26.6878 17.6587 26.4598 17.7849L23.764 19.278C23.6154 19.5699 23.4514 19.8537 23.2727 20.1281L23.3245 23.2074C23.3289 23.4676 23.2212 23.7172 23.0288 23.8925C21.6897 25.1127 20.1048 26.032 18.3808 26.5886C18.1319 26.6689 17.8604 26.6378 17.6361 26.5033L14.987 24.9138C14.6623 24.9283 14.3371 24.9283 14.0124 24.9138L11.3744 26.4925C11.1519 26.6256 10.8832 26.6571 10.636 26.579C8.90479 26.032 7.31313 25.1154 5.97123 23.8925C5.77885 23.7171 5.67114 23.4676 5.67554 23.2073L5.72743 20.1351C5.5496 19.8575 5.38563 19.5713 5.23612 19.2775L2.55027 17.7842C2.32415 17.6585 2.16255 17.4421 2.10617 17.1896C1.71108 15.4201 1.70691 13.5857 2.09395 11.8143C2.1496 11.5597 2.31221 11.3413 2.54024 11.215L5.23601 9.72197C5.38462 9.43008 5.54864 9.1463 5.72738 8.87182L5.67554 5.79258C5.67116 5.53234 5.77888 5.28278 5.97126 5.10747C7.31034 3.88723 8.89521 2.96792 10.6193 2.41138ZM7.49484 6.18136L7.54442 9.12652C7.54763 9.31732 7.49053 9.50427 7.38126 9.66072C7.13818 10.0087 6.92537 10.3769 6.74516 10.7613C6.66414 10.9341 6.53065 11.0769 6.36371 11.1693L3.78603 12.597C3.56057 13.8557 3.5637 15.1449 3.79528 16.4026L6.365 17.8314C6.53068 17.9235 6.6633 18.0652 6.7442 18.2367C6.92837 18.6269 7.14317 19.002 7.3866 19.3583C7.49244 19.5132 7.54759 19.6972 7.54442 19.8848L7.49486 22.8185C8.47441 23.646 9.59457 24.291 10.802 24.7227L13.321 23.2153C13.4805 23.1198 13.6656 23.0757 13.851 23.089C14.2831 23.1199 14.7169 23.1199 15.149 23.089C15.3348 23.0757 15.5202 23.12 15.68 23.2158L18.2071 24.7321C19.4105 24.2935 20.5271 23.6457 21.5052 22.8186L21.4556 19.8734C21.4524 19.6826 21.5095 19.4957 21.6188 19.3392C21.8619 18.9912 22.0747 18.623 22.2549 18.2387C22.3359 18.0659 22.4694 17.9231 22.6363 17.8306L25.214 16.403C25.4395 15.1442 25.4363 13.855 25.2048 12.5973L22.635 11.1686C22.4687 11.0761 22.3357 10.9336 22.2549 10.7613C22.0747 10.3769 21.8619 10.0087 21.6188 9.66072C21.5095 9.50427 21.4524 9.31732 21.4556 9.12652L21.5052 6.18148C20.5256 5.35399 19.4055 4.70899 18.1981 4.27722L15.6791 5.78465C15.5195 5.88012 15.3345 5.92422 15.149 5.91095C14.7169 5.88004 14.2831 5.88004 13.851 5.91095C13.6652 5.92424 13.4798 5.87995 13.3201 5.78411L10.793 4.26784C9.58949 4.70645 8.47293 5.35427 7.49484 6.18136ZM14.5 9.96873C11.9975 9.96873 9.96876 11.9974 9.96876 14.5C9.96876 17.0025 11.9975 19.0312 14.5 19.0312C17.0026 19.0312 19.0313 17.0025 19.0313 14.5C19.0313 11.9974 17.0026 9.96873 14.5 9.96873ZM8.15626 14.5C8.15626 10.9964 10.9965 8.15623 14.5 8.15623C18.0036 8.15623 20.8438 10.9964 20.8438 14.5C20.8438 18.0035 18.0036 20.8437 14.5 20.8437C10.9965 20.8437 8.15626 18.0035 8.15626 14.5Z" fill="#000022"/>
</svg>
