<svg width="23" height="25" viewBox="0 0 23 25" fill="none" xmlns="http://www.w3.org/2000/svg">
<path fill-rule="evenodd" clip-rule="evenodd" d="M6.0625 0.8125C6.56301 0.8125 6.96875 1.21824 6.96875 1.71875V2.625H16.0312V1.71875C16.0312 1.21824 16.437 0.8125 16.9375 0.8125C17.438 0.8125 17.8438 1.21824 17.8438 1.71875V2.625H20.5625C21.5635 2.625 22.375 3.43648 22.375 4.4375V22.5625C22.375 23.5635 21.5635 24.375 20.5625 24.375H2.4375C1.43648 24.375 0.625 23.5635 0.625 22.5625V4.4375C0.625 3.43648 1.43648 2.625 2.4375 2.625H5.15625V1.71875C5.15625 1.21824 5.56199 0.8125 6.0625 0.8125ZM5.15625 4.4375H2.4375V8.0625H20.5625V4.4375H17.8438V5.34375C17.8438 5.84426 17.438 6.25 16.9375 6.25C16.437 6.25 16.0312 5.84426 16.0312 5.34375V4.4375H6.96875V5.34375C6.96875 5.84426 6.56301 6.25 6.0625 6.25C5.56199 6.25 5.15625 5.84426 5.15625 5.34375V4.4375ZM20.5625 9.875H2.4375V22.5625H20.5625V9.875Z" fill="#000022"/>
</svg>
